<svg
  id="wrapper"
  width="459"
  height="385"
  viewBox="0 0 459 385"
  fill="none"
  xmlns="http://www.w3.org/2000/svg"
  xmlns:xlink="http://www.w3.org/1999/xlink"
>
<defs>
  <style>
    #wrapper {
      position: relative;
    }

    #astro #front-arm,
    #astro #back-arm {
      animation: astro-arm 20s linear infinite;
      transform-origin: center;
    }

    #astro #front-leg,
    #astro #back-leg {
      animation: astro-leg 20s linear infinite;
      transform-origin: center;
    }

    #stars {
      position: absolute;
      top: 0;
      left: 0;
      height: 100%;
      width: 100%;
      z-index: 200;
      animation: rotate 50s linear infinite;
    } 

    @keyframes astro-up-down {
      0% {
        top: 10%;
      }
      50% {
        top: 13%;
      }
      100% {
        top: 10%;
      }
    }

    @keyframes astro-arm {
      0% {
        transform: rotate(0deg);
      }

      50% {
        transform: rotate(-15deg);
      }

      100% {
        transform: rotate(0deg);
      }
    }

    @keyframes astro-leg {
      0% {
        transform: rotate(0deg);
      }

      50% {
        transform: rotate(5deg);
      }

      100% {
        transform: rotate(0deg);
      }
    }

    @keyframes rotate {
      0% {
        transform: rotate(0deg);
        background-size: 100%;
      }

      50% {
        transform: rotate(-10deg);
        background-size: 110%;
      }

      100% {
        transform: rotate(0deg);
        background-size: 100%;
      }
    }
  </style>
</defs>
  <g id="astro">
    <rect
      x="185.989"
      y="108.667"
      width="94.0838"
      height="137.623"
      rx="15.5"
      transform="rotate(25.714 185.989 108.667)"
      fill="#B6B6B6"
      stroke="#3D4351"
    />
    <rect
      x="173.374"
      y="106.939"
      width="96.7199"
      height="132.521"
      rx="15.5"
      transform="rotate(26.5268 173.374 106.939)"
      fill="#E3E3E3"
      stroke="#3D4351"
    />

    <g id="back-leg">
      <path
        d="M37.032 321.686C21.5249 307.855 41.7461 291.229 53.7951 284.644L95.5016 282.345L95.7073 304.358C82.6102 315.897 52.5391 335.516 37.032 321.686Z"
        fill="#B6B6B6"
        stroke="#3D4351"
      />
      <path
        d="M37.7849 317.135C22.2854 303.605 42.1305 286.93 53.9906 280.283L95.2593 277.566L95.6955 299.359C82.8501 310.922 53.2843 330.664 37.7849 317.135Z"
        fill="white"
        stroke="#3D4351"
      />
      <path
        d="M96.2756 278.951C96.4168 281.96 94.1639 284.924 90.1178 287.247C86.0973 289.555 80.4333 291.147 74.0811 291.445C67.7289 291.743 61.9407 290.689 57.7218 288.767C53.476 286.832 50.9556 284.093 50.8144 281.083C50.6733 278.074 52.9262 275.11 56.9723 272.787C60.9927 270.479 66.6568 268.887 73.009 268.589C79.3612 268.291 85.1493 269.345 89.3683 271.268C93.614 273.202 96.1345 275.941 96.2756 278.951Z"
        fill="white"
        stroke="#3D4351"
      />
      <path
        d="M82.9551 284.562C100.257 282.072 98.9174 264.029 96.0848 255.318C96.0848 255.318 110.483 258.275 119.299 256.138C126.597 254.368 129.034 254.514 138.29 247.76C147.546 241.006 153.38 234.378 142.876 220.281C132.372 206.184 110.992 201.623 89.0603 203.514C79.2326 204.361 73.2555 205.5 64.627 209.918C54.2949 215.208 36.5898 234.496 45.9778 260.249C55.3658 286.002 61.3276 287.675 82.9551 284.562Z"
        fill="white"
        stroke="#3D4351"
      />
    </g>

    <g id="front-leg">
      <path
        d="M167.169 376.41C146.418 377.48 149.104 351.44 153.041 338.285L181.078 307.323L196.704 322.831C195.505 340.245 187.92 375.339 167.169 376.41Z"
        fill="#B6B6B6"
        stroke="#3D4351"
      />
      <path
        d="M164.533 373.94C143.782 375.01 146.469 348.969 150.406 335.815L178.443 304.853L194.068 320.361C192.87 337.774 185.284 372.869 164.533 373.94Z"
        fill="white"
        stroke="#3D4351"
      />
      <path
        d="M180.828 306.17C182.856 308.399 183.009 312.118 181.372 316.488C179.746 320.829 176.396 325.666 171.692 329.945C166.987 334.223 161.855 337.1 157.379 338.309C152.875 339.525 149.187 339.02 147.16 336.792C145.132 334.563 144.979 330.843 146.616 326.474C148.242 322.133 151.592 317.296 156.296 313.017C161.001 308.738 166.133 305.861 170.609 304.653C175.113 303.437 178.801 303.941 180.828 306.17Z"
        fill="white"
        stroke="#3D4351"
      />
      <path
        d="M174.429 318.574C185.994 305.234 171.588 292.461 163.414 288.13C163.414 288.13 175.939 280.161 180.834 272.417C184.887 266.006 186.757 264.4 188.729 252.997C190.701 241.595 190.279 232.687 172.754 229.836C155.229 226.986 130.203 240.731 122.023 251.381C119.541 255.253 112.723 264.116 108.694 277.284C105.264 288.494 105.615 314.814 130.518 326.907C155.421 338.999 159.756 335.5 174.429 318.574Z"
        fill="white"
        stroke="#3D4351"
      />
    </g>

    <ellipse
      cx="134.48"
      cy="236.027"
      rx="40.9027"
      ry="15.9932"
      transform="rotate(20.5886 134.48 236.027)"
      fill="white"
    />

    <g id="back-arm">
      <path
        d="M106.925 79.4396C110.286 81.2833 109.055 94.9574 107.925 101.085C101.271 106.892 90.5565 115.256 87.5308 115.182C83.7487 115.089 78.2921 108.13 74.3413 103.25C70.3904 98.3691 66.7071 89.5537 71.2023 79.1529C75.6976 68.7521 85.8881 66.6448 89.5588 68.3767C92.7115 69.8642 97.6291 82.9257 97.6291 82.9257C97.6291 82.9257 100.415 75.8676 106.925 79.4396Z"
        fill="white"
        stroke="#3D4351"
      />
      <path
        d="M111.996 100.53C113.178 102.623 112.761 105.478 110.912 108.486C109.072 111.476 105.872 114.508 101.733 116.844C97.595 119.18 93.3452 120.354 89.8344 120.383C86.3038 120.412 83.6443 119.293 82.463 117.2C81.2817 115.108 81.6979 112.252 83.5476 109.245C85.3869 106.254 88.5874 103.222 92.7258 100.886C96.8643 98.5503 101.114 97.3771 104.625 97.3478C108.155 97.3183 110.815 98.4374 111.996 100.53Z"
        fill="white"
        stroke="#3D4351"
      />
      <path
        d="M87.3112 115.99C89.1933 107.685 102.027 103.045 108.208 101.763C113.755 106.587 126.855 116.767 134.88 118.894C144.912 121.552 147.306 112.985 161.043 124.131C178.103 137.973 172.431 160.153 157.207 166.037C141.983 171.92 113.802 155.18 110.22 152.137C106.639 149.093 84.9584 126.372 87.3112 115.99Z"
        fill="white"
        stroke="#3D4351"
      />
    </g>

    <path
      d="M139.843 133.892C142.494 127.451 150.57 120.744 154.277 118.196C161.413 113.058 185.866 120.496 200.874 127.921C215.882 135.346 227.152 133.696 233.894 153.322C235.721 158.639 230.174 178.811 227.248 182.448C223.591 186.995 207.541 213.527 205.026 222.673C202.511 231.818 195.583 246.128 186.068 249.449C176.554 252.77 144.006 236.012 129.933 228.307C115.861 220.601 104.864 205.622 105.465 195.325C105.941 187.19 120.708 174.211 126.965 163.945C133.222 153.678 136.53 141.943 139.843 133.892Z"
      fill="white"
      stroke="#3D4351"
    />
    <rect
      x="151.257"
      y="147.707"
      width="47.2624"
      height="46.079"
      rx="11.5"
      transform="rotate(28.0468 151.257 147.707)"
      fill="#E3E3E3"
      stroke="#3D4351"
    />
    <rect
      x="146.098"
      y="147.676"
      width="47.2624"
      height="46.079"
      rx="11.5"
      transform="rotate(28.0468 146.098 147.676)"
      fill="white"
      stroke="#3D4351"
    />
    <circle
      cx="154.971"
      cy="195.743"
      r="2.5"
      transform="rotate(4.3637 154.971 195.743)"
      fill="white"
      stroke="#3D4351"
    />
    <circle
      cx="148.22"
      cy="192.22"
      r="2.5"
      transform="rotate(4.3637 148.22 192.22)"
      fill="white"
      stroke="#3D4351"
    />
    <circle
      cx="161.723"
      cy="199.267"
      r="2.5"
      transform="rotate(4.3637 161.723 199.267)"
      fill="white"
      stroke="#3D4351"
    />

    <path
      d="M229.903 144.722C227.777 150.383 221.702 154.06 213.4 155.316C205.116 156.569 194.731 155.384 184.222 151.437C173.713 147.489 165.116 141.543 159.706 135.146C154.283 128.735 152.132 121.968 154.259 116.307C156.385 110.646 162.46 106.968 170.762 105.713C179.046 104.46 189.432 105.644 199.941 109.592C210.449 113.54 219.046 119.485 224.456 125.883C229.879 132.294 232.03 139.061 229.903 144.722Z"
      fill="white"
      stroke="#3D4351"
    />

    <g id="front-arm">
      <path
        d="M210.343 267.21C209.167 263.043 221.157 253.205 226.988 249.263C236.936 250.024 252.159 252.032 254.496 254.528C257.417 257.648 256.132 267.555 255.329 274.603C254.526 281.651 250.342 291.599 238.403 296.215C226.464 300.831 216.696 294.29 215.184 289.962C213.886 286.244 220.514 271.938 220.514 271.938C220.514 271.938 212.621 275.284 210.343 267.21Z"
        fill="white"
        stroke="#3D4351"
      />
      <path
        d="M258.516 257.671C257.886 260.053 255.539 261.849 252.036 262.732C248.553 263.61 244.044 263.547 239.344 262.304C234.645 261.061 230.694 258.887 228.1 256.402C225.492 253.902 224.339 251.181 224.969 248.8C225.599 246.418 227.946 244.622 231.448 243.739C234.932 242.861 239.441 242.924 244.141 244.167C248.84 245.41 252.791 247.584 255.385 250.069C257.993 252.568 259.146 255.29 258.516 257.671Z"
        fill="white"
        stroke="#3D4351"
      />
      <path
        d="M255.321 254.064C247.14 259.126 233.238 252.462 227.31 248.497C226.804 240.208 224.63 221.593 219.988 213.444C214.185 203.257 205.387 208.113 203.487 188.22C201.127 163.514 223.487 150.518 240.284 158.123C257.08 165.728 265.913 201.687 266.298 206.982C266.682 212.278 265.548 247.738 255.321 254.064Z"
        fill="white"
        stroke="#3D4351"
      />
    </g>

    <g id="head">
      <circle
        cx="213.644"
        cy="79.7062"
        r="62.6148"
        transform="rotate(17.0131 213.644 79.7062)"
        fill="#3D4351"
        stroke="#3D4351"
      />
      <circle
        cx="198.341"
        cy="36.2146"
        r="5.95934"
        transform="rotate(17.0131 198.341 36.2146)"
        fill="white"
      />
      <path
        d="M269.084 110.024C267.172 113.674 264.632 116.527 262.096 118.198C259.542 119.88 257.101 120.306 255.281 119.353C253.462 118.399 252.422 116.15 252.351 113.093C252.281 110.056 253.181 106.344 255.094 102.694C257.006 99.0438 259.545 96.1909 262.082 94.5194C264.635 92.837 267.077 92.4116 268.897 93.3648C270.716 94.318 271.756 96.5676 271.826 99.6245C271.896 102.662 270.996 106.374 269.084 110.024Z"
        fill="#C4C4C4"
        stroke="#3D4351"
      />
      <path
        d="M272.441 111.832C270.529 115.482 267.989 118.335 265.453 120.007C262.899 121.689 260.458 122.114 258.638 121.161C256.819 120.208 255.779 117.958 255.708 114.901C255.638 111.864 256.538 108.152 258.451 104.502C260.363 100.852 262.903 97.9995 265.439 96.328C267.992 94.6456 270.434 94.2202 272.254 95.1734C274.073 96.1266 275.113 98.3762 275.184 101.433C275.253 104.47 274.353 108.182 272.441 111.832Z"
        fill="white"
        stroke="#3D4351"
      />
      <circle
        cx="207.181"
        cy="47.1347"
        r="2.97967"
        transform="rotate(17.0131 207.181 47.1347)"
        fill="white"
      />
    </g>
  </g>
  <g id="stars">    
      <g opacity="0.5">
      <path opacity="0.5" d="M53.4605 444.597H50.6617V460.442H53.4605V444.597Z" fill="#47E6B1"/>
      <path opacity="0.5" d="M59.9796 453.923V451.125H44.1342V453.923H59.9796Z" fill="#47E6B1"/>
      </g>
      <g opacity="0.5">
      <path opacity="0.5" d="M704.326 297H701.527V312.845H704.326V297Z" fill="#47E6B1"/>
      <path opacity="0.5" d="M710.845 306.327V303.528H695V306.327H710.845Z" fill="#47E6B1"/>
      </g>
      <g opacity="0.5">
      <path opacity="0.5" d="M403.326 630H400.527V645.845H403.326V630Z" fill="#47E6B1"/>
      <path opacity="0.5" d="M409.845 639.327V636.528H394V639.327H409.845Z" fill="#47E6B1"/>
      </g>
      <path opacity="0.5" d="M79.9723 619.101C79.1634 618.777 78.512 618.189 78.142 617.45C77.772 616.711 77.7093 615.872 77.9658 615.094C78.009 614.974 78.0366 614.849 78.0479 614.723C78.0568 614.372 77.9467 614.028 77.7329 613.737C77.5192 613.447 77.2125 613.226 76.8558 613.104C76.4991 612.983 76.1101 612.967 75.7433 613.06C75.3766 613.152 75.0503 613.348 74.8101 613.62C74.7294 613.722 74.662 613.832 74.6094 613.949C74.2581 614.695 73.6216 615.297 72.821 615.638C72.0205 615.98 71.1118 616.038 70.268 615.801C70.138 615.761 70.0033 615.735 69.8668 615.725C69.4866 615.717 69.1132 615.818 68.7987 616.016C68.4842 616.213 68.2444 616.496 68.1128 616.825C67.9812 617.155 67.9643 617.514 68.0646 617.852C68.1648 618.191 68.3772 618.492 68.6719 618.714C68.7821 618.788 68.9016 618.85 69.0277 618.899C69.8366 619.223 70.488 619.811 70.858 620.55C71.228 621.289 71.2907 622.128 71.0342 622.906C70.991 623.026 70.9634 623.151 70.9521 623.277C70.9432 623.628 71.0533 623.972 71.2671 624.263C71.4808 624.553 71.7875 624.774 72.1442 624.896C72.5009 625.017 72.8899 625.033 73.2567 624.94C73.6234 624.848 73.9497 624.652 74.1899 624.38C74.2706 624.278 74.338 624.168 74.3906 624.051C74.7419 623.305 75.3784 622.703 76.179 622.362C76.9795 622.02 77.8882 621.962 78.7319 622.199C78.862 622.239 78.9967 622.265 79.1332 622.275C79.5134 622.283 79.8868 622.182 80.2013 621.984C80.5158 621.787 80.7556 621.504 80.8872 621.175C81.0188 620.845 81.0357 620.486 80.9354 620.148C80.8352 619.809 80.6228 619.508 80.328 619.286C80.2178 619.212 80.0984 619.15 79.9723 619.101Z" fill="#4D8AF0"/>
      <path opacity="0.5" d="M493.051 573.101C492.305 572.777 491.703 572.189 491.362 571.45C491.02 570.711 490.962 569.872 491.199 569.094C491.239 568.974 491.265 568.849 491.275 568.723C491.283 568.372 491.182 568.028 490.984 567.737C490.787 567.447 490.504 567.226 490.175 567.104C489.845 566.983 489.486 566.967 489.148 567.06C488.809 567.152 488.508 567.348 488.286 567.62C488.212 567.722 488.15 567.832 488.101 567.949C487.777 568.695 487.189 569.297 486.45 569.638C485.711 569.98 484.872 570.038 484.094 569.801C483.974 569.761 483.849 569.735 483.723 569.725C483.372 569.717 483.028 569.818 482.737 570.016C482.447 570.213 482.226 570.496 482.104 570.825C481.983 571.155 481.967 571.514 482.06 571.852C482.152 572.191 482.348 572.492 482.62 572.714C482.722 572.788 482.832 572.85 482.949 572.899C483.695 573.223 484.297 573.811 484.638 574.55C484.98 575.289 485.038 576.128 484.801 576.906C484.761 577.026 484.735 577.151 484.725 577.277C484.717 577.628 484.818 577.972 485.016 578.263C485.213 578.553 485.496 578.774 485.825 578.896C486.155 579.017 486.514 579.033 486.852 578.94C487.191 578.848 487.492 578.652 487.714 578.38C487.788 578.278 487.85 578.168 487.899 578.051C488.223 577.305 488.811 576.703 489.55 576.362C490.289 576.02 491.128 575.962 491.906 576.199C492.026 576.239 492.151 576.265 492.277 576.275C492.628 576.283 492.972 576.182 493.263 575.984C493.553 575.787 493.774 575.504 493.896 575.175C494.017 574.845 494.033 574.486 493.94 574.148C493.848 573.809 493.652 573.508 493.38 573.286C493.278 573.212 493.168 573.15 493.051 573.101Z" fill="#4D8AF0"/>
      <path opacity="0.5" d="M650.972 60.101C650.163 59.7767 649.512 59.1892 649.142 58.4502C648.772 57.7112 648.709 56.8724 648.966 56.0936C649.009 55.9735 649.037 55.8492 649.048 55.7231C649.057 55.3722 648.947 55.0276 648.733 54.7373C648.519 54.447 648.213 54.2256 647.856 54.1041C647.499 53.9826 647.11 53.967 646.743 54.0596C646.377 54.1521 646.05 54.3481 645.81 54.6203C645.729 54.722 645.662 54.8322 645.609 54.9486C645.258 55.6953 644.622 56.2966 643.821 56.6382C643.02 56.9797 642.112 57.0376 641.268 56.8008C641.138 56.7609 641.003 56.7354 640.867 56.725C640.487 56.7168 640.113 56.8185 639.799 57.0158C639.484 57.2131 639.244 57.4961 639.113 57.8254C638.981 58.1547 638.964 58.5137 639.065 58.8523C639.165 59.1909 639.377 59.4921 639.672 59.7138C639.782 59.7883 639.902 59.8505 640.028 59.899C640.837 60.2233 641.488 60.8108 641.858 61.5498C642.228 62.2888 642.291 63.1275 642.034 63.9064C641.991 64.0264 641.963 64.1508 641.952 64.2768C641.943 64.6277 642.053 64.9724 642.267 65.2627C642.481 65.553 642.787 65.7744 643.144 65.8959C643.501 66.0174 643.89 66.033 644.257 65.9404C644.623 65.8479 644.95 65.6518 645.19 65.3797C645.271 65.278 645.338 65.1678 645.391 65.0514C645.742 64.3047 646.378 63.7034 647.179 63.3618C647.979 63.0203 648.888 62.9624 649.732 63.1992C649.862 63.2391 649.997 63.2645 650.133 63.275C650.513 63.2832 650.887 63.1815 651.201 62.9842C651.516 62.7869 651.756 62.5039 651.887 62.1746C652.019 61.8453 652.036 61.4863 651.935 61.1477C651.835 60.8091 651.623 60.5079 651.328 60.2862C651.218 60.2117 651.098 60.1495 650.972 60.101Z" fill="#4D8AF0"/>
      <path opacity="0.5" d="M11.0514 287.609C10.3047 287.258 9.70335 286.622 9.36181 285.821C9.02027 285.021 8.9624 284.112 9.19921 283.268C9.2391 283.138 9.26453 283.003 9.27498 282.867C9.28318 282.487 9.18154 282.113 8.98424 281.799C8.78694 281.484 8.50386 281.244 8.17457 281.113C7.84529 280.981 7.48626 280.964 7.14769 281.065C6.80912 281.165 6.50794 281.377 6.28625 281.672C6.21172 281.782 6.14954 281.902 6.10103 282.028C5.77672 282.837 5.18915 283.488 4.45018 283.858C3.71122 284.228 2.87245 284.291 2.09358 284.034C1.97356 283.991 1.8492 283.963 1.72315 283.952C1.37225 283.943 1.02758 284.053 0.737292 284.267C0.447006 284.481 0.225631 284.787 0.104121 285.144C-0.0173897 285.501 -0.0329602 285.89 0.0595824 286.257C0.152125 286.623 0.34815 286.95 0.620262 287.19C0.721982 287.271 0.832202 287.338 0.948601 287.391C1.69529 287.742 2.29665 288.378 2.63819 289.179C2.97973 289.98 3.0376 290.888 2.80079 291.732C2.7609 291.862 2.73545 291.997 2.72501 292.133C2.7168 292.513 2.81846 292.887 3.01576 293.201C3.21306 293.516 3.49614 293.756 3.82543 293.887C4.15471 294.019 4.51373 294.036 4.8523 293.935C5.19087 293.835 5.49206 293.623 5.71375 293.328C5.78828 293.218 5.85046 293.098 5.89897 292.972C6.22328 292.163 6.81085 291.512 7.54982 291.142C8.28878 290.772 9.12753 290.709 9.9064 290.966C10.0264 291.009 10.1508 291.037 10.2768 291.048C10.6277 291.057 10.9724 290.947 11.2627 290.733C11.553 290.519 11.7744 290.213 11.8959 289.856C12.0174 289.499 12.033 289.11 11.9404 288.743C11.8479 288.377 11.6518 288.05 11.3797 287.81C11.278 287.729 11.1678 287.662 11.0514 287.609Z" fill="#4D8AF0"/>
      <path opacity="0.5" d="M439.051 17.6094C438.305 17.2581 437.703 16.6216 437.362 15.8211C437.02 15.0205 436.962 14.1118 437.199 13.268C437.239 13.138 437.265 13.0033 437.275 12.8667C437.283 12.4866 437.182 12.1132 436.984 11.7987C436.787 11.4843 436.504 11.2444 436.175 11.1128C435.845 10.9812 435.486 10.9643 435.148 11.0645C434.809 11.1648 434.508 11.3771 434.286 11.6719C434.212 11.7821 434.15 11.9015 434.101 12.0276C433.777 12.8366 433.189 13.4881 432.45 13.8581C431.711 14.2281 430.872 14.2907 430.094 14.0342C429.974 13.991 429.849 13.9634 429.723 13.9521C429.372 13.9432 429.028 14.0534 428.737 14.2671C428.447 14.4808 428.226 14.7875 428.104 15.1442C427.983 15.5009 427.967 15.8899 428.06 16.2567C428.152 16.6234 428.348 16.9498 428.62 17.1899C428.722 17.2707 428.832 17.338 428.949 17.3906C429.695 17.7419 430.297 18.3784 430.638 19.179C430.98 19.9795 431.038 20.8882 430.801 21.732C430.761 21.862 430.735 21.9967 430.725 22.1333C430.717 22.5134 430.818 22.8868 431.016 23.2013C431.213 23.5157 431.496 23.7556 431.825 23.8872C432.155 24.0188 432.514 24.0357 432.852 23.9355C433.191 23.8352 433.492 23.6229 433.714 23.3281C433.788 23.2179 433.85 23.0985 433.899 22.9724C434.223 22.1634 434.811 21.512 435.55 21.142C436.289 20.772 437.128 20.7093 437.906 20.9658C438.026 21.009 438.151 21.0366 438.277 21.0479C438.628 21.0568 438.972 20.9467 439.263 20.733C439.553 20.5192 439.774 20.2125 439.896 19.8558C440.017 19.4991 440.033 19.1101 439.94 18.7433C439.848 18.3766 439.652 18.0503 439.38 17.8101C439.278 17.7294 439.168 17.662 439.051 17.6094Z" fill="#4D8AF0"/>
      <path opacity="0.5" d="M626.5 543C629.538 543 632 540.538 632 537.5C632 534.462 629.538 532 626.5 532C623.462 532 621 534.462 621 537.5C621 540.538 623.462 543 626.5 543Z" fill="#F55F44"/>
      <path opacity="0.5" d="M111.5 73C114.538 73 117 70.5376 117 67.5C117 64.4624 114.538 62 111.5 62C108.462 62 106 64.4624 106 67.5C106 70.5376 108.462 73 111.5 73Z" fill="#F55F44"/>
      <path opacity="0.5" d="M86.5 370C89.5376 370 92 367.538 92 364.5C92 361.462 89.5376 359 86.5 359C83.4624 359 81 361.462 81 364.5C81 367.538 83.4624 370 86.5 370Z" fill="#F55F44"/>
      <path opacity="0.5" d="M557.5 11C560.538 11 563 8.53757 563 5.50001C563 2.46244 560.538 0 557.5 0C554.462 0 552 2.46244 552 5.50001C552 8.53757 554.462 11 557.5 11Z" fill="#F55F44"/>
  </g>
</svg>
