<svg
  id="wrapper"
  width="459"
  height="385"
  viewBox="0 0 459 385"
  fill="none"
  xmlns="http://www.w3.org/2000/svg"
  xmlns:xlink="http://www.w3.org/1999/xlink"
>
<defs>
  <style>

    #wrapper {
      position: absolute;
      animation: astro-up-down 5s linear infinite;
    }

    #astro #front-arm,
    #astro #back-arm {
      animation: astro-arm 20s linear infinite;
      transform-origin: center;
    }

    #astro #front-leg,
    #astro #back-leg {
      animation: astro-leg 20s linear infinite;
      transform-origin: center;
    }

    #stars {
      animation: rotate 50s linear infinite;
    } 

    @keyframes astro-up-down {
      0% {
        top: 0%;
      }
      50% {
        top: 3%;
      }
      100% {
        top: 0%;
      }
    }

    @keyframes astro-arm {
      0% {
        transform: rotate(0deg);
      }

      50% {
        transform: rotate(-15deg);
      }

      100% {
        transform: rotate(0deg);
      }
    }

    @keyframes astro-leg {
      0% {
        transform: rotate(0deg);
      }

      50% {
        transform: rotate(5deg);
      }

      100% {
        transform: rotate(0deg);
      }
    }

    @keyframes rotate {
      0% {
        transform: rotate(0deg);
        background-size: 100%;
      }

      50% {
        transform: rotate(-10deg);
        background-size: 110%;
      }

      100% {
        transform: rotate(0deg);
        background-size: 100%;
      }
    }
  </style>
</defs>
  <g id="astro">
    <rect
      x="185.989"
      y="108.667"
      width="94.0838"
      height="137.623"
      rx="15.5"
      transform="rotate(25.714 185.989 108.667)"
      fill="#B6B6B6"
      stroke="#3D4351"
    />
    <rect
      x="173.374"
      y="106.939"
      width="96.7199"
      height="132.521"
      rx="15.5"
      transform="rotate(26.5268 173.374 106.939)"
      fill="#E3E3E3"
      stroke="#3D4351"
    />

    <g id="back-leg">
      <path
        d="M37.032 321.686C21.5249 307.855 41.7461 291.229 53.7951 284.644L95.5016 282.345L95.7073 304.358C82.6102 315.897 52.5391 335.516 37.032 321.686Z"
        fill="#B6B6B6"
        stroke="#3D4351"
      />
      <path
        d="M37.7849 317.135C22.2854 303.605 42.1305 286.93 53.9906 280.283L95.2593 277.566L95.6955 299.359C82.8501 310.922 53.2843 330.664 37.7849 317.135Z"
        fill="white"
        stroke="#3D4351"
      />
      <path
        d="M96.2756 278.951C96.4168 281.96 94.1639 284.924 90.1178 287.247C86.0973 289.555 80.4333 291.147 74.0811 291.445C67.7289 291.743 61.9407 290.689 57.7218 288.767C53.476 286.832 50.9556 284.093 50.8144 281.083C50.6733 278.074 52.9262 275.11 56.9723 272.787C60.9927 270.479 66.6568 268.887 73.009 268.589C79.3612 268.291 85.1493 269.345 89.3683 271.268C93.614 273.202 96.1345 275.941 96.2756 278.951Z"
        fill="white"
        stroke="#3D4351"
      />
      <path
        d="M82.9551 284.562C100.257 282.072 98.9174 264.029 96.0848 255.318C96.0848 255.318 110.483 258.275 119.299 256.138C126.597 254.368 129.034 254.514 138.29 247.76C147.546 241.006 153.38 234.378 142.876 220.281C132.372 206.184 110.992 201.623 89.0603 203.514C79.2326 204.361 73.2555 205.5 64.627 209.918C54.2949 215.208 36.5898 234.496 45.9778 260.249C55.3658 286.002 61.3276 287.675 82.9551 284.562Z"
        fill="white"
        stroke="#3D4351"
      />
    </g>

    <g id="front-leg">
      <path
        d="M167.169 376.41C146.418 377.48 149.104 351.44 153.041 338.285L181.078 307.323L196.704 322.831C195.505 340.245 187.92 375.339 167.169 376.41Z"
        fill="#B6B6B6"
        stroke="#3D4351"
      />
      <path
        d="M164.533 373.94C143.782 375.01 146.469 348.969 150.406 335.815L178.443 304.853L194.068 320.361C192.87 337.774 185.284 372.869 164.533 373.94Z"
        fill="white"
        stroke="#3D4351"
      />
      <path
        d="M180.828 306.17C182.856 308.399 183.009 312.118 181.372 316.488C179.746 320.829 176.396 325.666 171.692 329.945C166.987 334.223 161.855 337.1 157.379 338.309C152.875 339.525 149.187 339.02 147.16 336.792C145.132 334.563 144.979 330.843 146.616 326.474C148.242 322.133 151.592 317.296 156.296 313.017C161.001 308.738 166.133 305.861 170.609 304.653C175.113 303.437 178.801 303.941 180.828 306.17Z"
        fill="white"
        stroke="#3D4351"
      />
      <path
        d="M174.429 318.574C185.994 305.234 171.588 292.461 163.414 288.13C163.414 288.13 175.939 280.161 180.834 272.417C184.887 266.006 186.757 264.4 188.729 252.997C190.701 241.595 190.279 232.687 172.754 229.836C155.229 226.986 130.203 240.731 122.023 251.381C119.541 255.253 112.723 264.116 108.694 277.284C105.264 288.494 105.615 314.814 130.518 326.907C155.421 338.999 159.756 335.5 174.429 318.574Z"
        fill="white"
        stroke="#3D4351"
      />
    </g>

    <ellipse
      cx="134.48"
      cy="236.027"
      rx="40.9027"
      ry="15.9932"
      transform="rotate(20.5886 134.48 236.027)"
      fill="white"
    />

    <g id="back-arm">
      <path
        d="M106.925 79.4396C110.286 81.2833 109.055 94.9574 107.925 101.085C101.271 106.892 90.5565 115.256 87.5308 115.182C83.7487 115.089 78.2921 108.13 74.3413 103.25C70.3904 98.3691 66.7071 89.5537 71.2023 79.1529C75.6976 68.7521 85.8881 66.6448 89.5588 68.3767C92.7115 69.8642 97.6291 82.9257 97.6291 82.9257C97.6291 82.9257 100.415 75.8676 106.925 79.4396Z"
        fill="white"
        stroke="#3D4351"
      />
      <path
        d="M111.996 100.53C113.178 102.623 112.761 105.478 110.912 108.486C109.072 111.476 105.872 114.508 101.733 116.844C97.595 119.18 93.3452 120.354 89.8344 120.383C86.3038 120.412 83.6443 119.293 82.463 117.2C81.2817 115.108 81.6979 112.252 83.5476 109.245C85.3869 106.254 88.5874 103.222 92.7258 100.886C96.8643 98.5503 101.114 97.3771 104.625 97.3478C108.155 97.3183 110.815 98.4374 111.996 100.53Z"
        fill="white"
        stroke="#3D4351"
      />
      <path
        d="M87.3112 115.99C89.1933 107.685 102.027 103.045 108.208 101.763C113.755 106.587 126.855 116.767 134.88 118.894C144.912 121.552 147.306 112.985 161.043 124.131C178.103 137.973 172.431 160.153 157.207 166.037C141.983 171.92 113.802 155.18 110.22 152.137C106.639 149.093 84.9584 126.372 87.3112 115.99Z"
        fill="white"
        stroke="#3D4351"
      />
    </g>

    <path
      d="M139.843 133.892C142.494 127.451 150.57 120.744 154.277 118.196C161.413 113.058 185.866 120.496 200.874 127.921C215.882 135.346 227.152 133.696 233.894 153.322C235.721 158.639 230.174 178.811 227.248 182.448C223.591 186.995 207.541 213.527 205.026 222.673C202.511 231.818 195.583 246.128 186.068 249.449C176.554 252.77 144.006 236.012 129.933 228.307C115.861 220.601 104.864 205.622 105.465 195.325C105.941 187.19 120.708 174.211 126.965 163.945C133.222 153.678 136.53 141.943 139.843 133.892Z"
      fill="white"
      stroke="#3D4351"
    />
    <rect
      x="151.257"
      y="147.707"
      width="47.2624"
      height="46.079"
      rx="11.5"
      transform="rotate(28.0468 151.257 147.707)"
      fill="#E3E3E3"
      stroke="#3D4351"
    />
    <rect
      x="146.098"
      y="147.676"
      width="47.2624"
      height="46.079"
      rx="11.5"
      transform="rotate(28.0468 146.098 147.676)"
      fill="white"
      stroke="#3D4351"
    />
    <circle
      cx="154.971"
      cy="195.743"
      r="2.5"
      transform="rotate(4.3637 154.971 195.743)"
      fill="white"
      stroke="#3D4351"
    />
    <circle
      cx="148.22"
      cy="192.22"
      r="2.5"
      transform="rotate(4.3637 148.22 192.22)"
      fill="white"
      stroke="#3D4351"
    />
    <circle
      cx="161.723"
      cy="199.267"
      r="2.5"
      transform="rotate(4.3637 161.723 199.267)"
      fill="white"
      stroke="#3D4351"
    />

    <path
      d="M229.903 144.722C227.777 150.383 221.702 154.06 213.4 155.316C205.116 156.569 194.731 155.384 184.222 151.437C173.713 147.489 165.116 141.543 159.706 135.146C154.283 128.735 152.132 121.968 154.259 116.307C156.385 110.646 162.46 106.968 170.762 105.713C179.046 104.46 189.432 105.644 199.941 109.592C210.449 113.54 219.046 119.485 224.456 125.883C229.879 132.294 232.03 139.061 229.903 144.722Z"
      fill="white"
      stroke="#3D4351"
    />

    <g id="front-arm">
      <path
        d="M210.343 267.21C209.167 263.043 221.157 253.205 226.988 249.263C236.936 250.024 252.159 252.032 254.496 254.528C257.417 257.648 256.132 267.555 255.329 274.603C254.526 281.651 250.342 291.599 238.403 296.215C226.464 300.831 216.696 294.29 215.184 289.962C213.886 286.244 220.514 271.938 220.514 271.938C220.514 271.938 212.621 275.284 210.343 267.21Z"
        fill="white"
        stroke="#3D4351"
      />
      <path
        d="M258.516 257.671C257.886 260.053 255.539 261.849 252.036 262.732C248.553 263.61 244.044 263.547 239.344 262.304C234.645 261.061 230.694 258.887 228.1 256.402C225.492 253.902 224.339 251.181 224.969 248.8C225.599 246.418 227.946 244.622 231.448 243.739C234.932 242.861 239.441 242.924 244.141 244.167C248.84 245.41 252.791 247.584 255.385 250.069C257.993 252.568 259.146 255.29 258.516 257.671Z"
        fill="white"
        stroke="#3D4351"
      />
      <path
        d="M255.321 254.064C247.14 259.126 233.238 252.462 227.31 248.497C226.804 240.208 224.63 221.593 219.988 213.444C214.185 203.257 205.387 208.113 203.487 188.22C201.127 163.514 223.487 150.518 240.284 158.123C257.08 165.728 265.913 201.687 266.298 206.982C266.682 212.278 265.548 247.738 255.321 254.064Z"
        fill="white"
        stroke="#3D4351"
      />
    </g>

    <g id="head">
      <circle
        cx="213.644"
        cy="79.7062"
        r="62.6148"
        transform="rotate(17.0131 213.644 79.7062)"
        fill="#3D4351"
        stroke="#3D4351"
      />
      <circle
        cx="198.341"
        cy="36.2146"
        r="5.95934"
        transform="rotate(17.0131 198.341 36.2146)"
        fill="white"
      />
      <path
        d="M269.084 110.024C267.172 113.674 264.632 116.527 262.096 118.198C259.542 119.88 257.101 120.306 255.281 119.353C253.462 118.399 252.422 116.15 252.351 113.093C252.281 110.056 253.181 106.344 255.094 102.694C257.006 99.0438 259.545 96.1909 262.082 94.5194C264.635 92.837 267.077 92.4116 268.897 93.3648C270.716 94.318 271.756 96.5676 271.826 99.6245C271.896 102.662 270.996 106.374 269.084 110.024Z"
        fill="#C4C4C4"
        stroke="#3D4351"
      />
      <path
        d="M272.441 111.832C270.529 115.482 267.989 118.335 265.453 120.007C262.899 121.689 260.458 122.114 258.638 121.161C256.819 120.208 255.779 117.958 255.708 114.901C255.638 111.864 256.538 108.152 258.451 104.502C260.363 100.852 262.903 97.9995 265.439 96.328C267.992 94.6456 270.434 94.2202 272.254 95.1734C274.073 96.1266 275.113 98.3762 275.184 101.433C275.253 104.47 274.353 108.182 272.441 111.832Z"
        fill="white"
        stroke="#3D4351"
      />
      <circle
        cx="207.181"
        cy="47.1347"
        r="2.97967"
        transform="rotate(17.0131 207.181 47.1347)"
        fill="white"
      />
    </g>
  </g>
  
  <g id="stars">    
    <g clip-path="url(#clip0_102_3)">
    <g opacity="0.5">
    <path opacity="0.5" d="M28.6476 238.128H27.1478V246.614H28.6476V238.128Z" fill="#47E6B1"/>
    <path opacity="0.5" d="M32.141 243.123V241.624H23.65V243.123H32.141Z" fill="#47E6B1"/>
    </g>
    <g opacity="0.5">
    <path opacity="0.5" d="M377.424 159.074H375.924V167.561H377.424V159.074Z" fill="#47E6B1"/>
    <path opacity="0.5" d="M380.917 164.07V162.571H372.426V164.07H380.917Z" fill="#47E6B1"/>
    </g>
    <g opacity="0.5">
    <path opacity="0.5" d="M216.128 337.43H214.628V345.917H216.128V337.43Z" fill="#47E6B1"/>
    <path opacity="0.5" d="M219.622 342.426V340.927H211.131V342.426H219.622Z" fill="#47E6B1"/>
    </g>
    <path opacity="0.5" d="M42.8544 331.593C42.4209 331.419 42.0718 331.104 41.8736 330.709C41.6753 330.313 41.6417 329.863 41.7792 329.447C41.8023 329.382 41.8171 329.315 41.8231 329.248C41.8279 329.06 41.7689 328.876 41.6544 328.72C41.5398 328.564 41.3755 328.446 41.1843 328.381C40.9932 328.316 40.7847 328.307 40.5882 328.357C40.3917 328.406 40.2168 328.511 40.0881 328.657C40.0449 328.712 40.0088 328.771 39.9806 328.833C39.7923 329.233 39.4512 329.555 39.0222 329.738C38.5933 329.921 38.1063 329.952 37.6542 329.825C37.5845 329.804 37.5123 329.79 37.4392 329.785C37.2354 329.78 37.0354 329.834 36.8668 329.94C36.6983 330.046 36.5698 330.198 36.4993 330.374C36.4288 330.551 36.4197 330.743 36.4734 330.924C36.5271 331.105 36.641 331.267 36.7989 331.386C36.8579 331.425 36.922 331.458 36.9895 331.485C37.423 331.658 37.7721 331.973 37.9703 332.369C38.1686 332.765 38.2022 333.214 38.0648 333.631C38.0416 333.695 38.0268 333.762 38.0208 333.829C38.016 334.017 38.075 334.202 38.1896 334.358C38.3041 334.513 38.4684 334.631 38.6596 334.697C38.8507 334.761 39.0592 334.77 39.2557 334.72C39.4522 334.671 39.6271 334.566 39.7558 334.42C39.799 334.366 39.8351 334.307 39.8633 334.244C40.0516 333.844 40.3927 333.522 40.8217 333.339C41.2506 333.156 41.7376 333.125 42.1897 333.252C42.2594 333.274 42.3316 333.287 42.4047 333.293C42.6085 333.297 42.8086 333.243 42.9771 333.137C43.1456 333.031 43.2741 332.88 43.3446 332.704C43.4151 332.527 43.4242 332.335 43.3705 332.154C43.3168 331.972 43.2029 331.811 43.045 331.692C42.9859 331.652 42.9219 331.619 42.8544 331.593Z" fill="#4D8AF0"/>
    <path opacity="0.5" d="M264.209 306.955C263.809 306.782 263.486 306.467 263.304 306.071C263.12 305.675 263.089 305.226 263.216 304.809C263.238 304.745 263.252 304.678 263.257 304.61C263.261 304.422 263.207 304.238 263.101 304.082C262.996 303.927 262.844 303.808 262.668 303.743C262.491 303.678 262.298 303.67 262.117 303.719C261.936 303.769 261.774 303.874 261.655 304.019C261.616 304.074 261.582 304.133 261.556 304.196C261.383 304.595 261.068 304.918 260.671 305.1C260.275 305.283 259.826 305.314 259.409 305.188C259.345 305.166 259.278 305.152 259.21 305.147C259.022 305.143 258.838 305.197 258.682 305.303C258.526 305.408 258.408 305.56 258.343 305.736C258.278 305.913 258.269 306.105 258.319 306.286C258.368 306.468 258.473 306.629 258.619 306.748C258.674 306.787 258.733 306.821 258.795 306.847C259.195 307.02 259.518 307.335 259.701 307.731C259.884 308.127 259.915 308.576 259.788 308.993C259.766 309.057 259.752 309.124 259.747 309.192C259.743 309.38 259.797 309.564 259.903 309.72C260.009 309.875 260.16 309.994 260.337 310.059C260.513 310.124 260.706 310.132 260.887 310.082C261.069 310.033 261.23 309.928 261.349 309.782C261.388 309.728 261.422 309.669 261.448 309.606C261.622 309.207 261.937 308.884 262.333 308.702C262.729 308.518 263.178 308.487 263.595 308.614C263.659 308.636 263.726 308.65 263.794 308.655C263.982 308.659 264.166 308.605 264.322 308.499C264.478 308.394 264.596 308.242 264.662 308.066C264.726 307.889 264.735 307.697 264.685 307.516C264.636 307.334 264.531 307.173 264.385 307.054C264.33 307.014 264.271 306.981 264.209 306.955Z" fill="#4D8AF0"/>
    <path opacity="0.5" d="M348.833 32.1903C348.4 32.0166 348.051 31.7019 347.852 31.3061C347.654 30.9103 347.62 30.4611 347.758 30.0439C347.781 29.9796 347.796 29.913 347.802 29.8455C347.807 29.6575 347.748 29.473 347.633 29.3175C347.519 29.162 347.355 29.0434 347.163 28.9783C346.972 28.9133 346.764 28.9049 346.567 28.9545C346.371 29.0041 346.196 29.109 346.067 29.2548C346.024 29.3093 345.988 29.3683 345.959 29.4307C345.771 29.8306 345.43 30.1527 345.001 30.3356C344.572 30.5185 344.085 30.5495 343.633 30.4227C343.563 30.4013 343.491 30.3877 343.418 30.3821C343.215 30.3777 343.014 30.4322 342.846 30.5379C342.677 30.6435 342.548 30.7951 342.478 30.9715C342.408 31.1479 342.398 31.3401 342.453 31.5215C342.506 31.7029 342.62 31.8642 342.778 31.9829C342.837 32.0228 342.901 32.0561 342.969 32.0821C343.402 32.2558 343.751 32.5705 343.949 32.9663C344.147 33.3621 344.181 33.8113 344.044 34.2285C344.021 34.2928 344.006 34.3594 344 34.4269C343.995 34.6148 344.054 34.7994 344.168 34.9549C344.283 35.1104 344.447 35.229 344.638 35.2941C344.83 35.3591 345.038 35.3675 345.235 35.3179C345.431 35.2684 345.606 35.1633 345.735 35.0176C345.778 34.9631 345.814 34.9041 345.842 34.8418C346.031 34.4418 346.371 34.1198 346.801 33.9368C347.229 33.7539 347.716 33.7229 348.169 33.8497C348.238 33.8711 348.311 33.8847 348.384 33.8903C348.587 33.8947 348.788 33.8402 348.956 33.7346C349.125 33.6289 349.253 33.4773 349.323 33.3009C349.394 33.1246 349.403 32.9323 349.349 32.7509C349.296 32.5696 349.182 32.4082 349.024 32.2895C348.965 32.2496 348.901 32.2163 348.833 32.1903Z" fill="#4D8AF0"/>
    <path opacity="0.5" d="M5.92206 154.044C5.52193 153.856 5.19969 153.516 5.01667 153.087C4.83365 152.658 4.80264 152.171 4.92953 151.719C4.95091 151.65 4.96454 151.577 4.97014 151.505C4.97453 151.301 4.92007 151.101 4.81434 150.933C4.70861 150.764 4.55692 150.635 4.38047 150.565C4.20402 150.494 4.01162 150.485 3.8302 150.539C3.64877 150.593 3.48738 150.707 3.36858 150.865C3.32864 150.923 3.29532 150.988 3.26933 151.055C3.09554 151.489 2.78068 151.837 2.3847 152.035C1.98871 152.234 1.53925 152.267 1.12188 152.13C1.05756 152.107 0.990921 152.092 0.923376 152.086C0.735341 152.081 0.550644 152.14 0.395089 152.254C0.239535 152.369 0.120908 152.533 0.0557948 152.724C-0.00931854 152.915 -0.0176622 153.124 0.0319281 153.32C0.0815184 153.516 0.186561 153.691 0.332377 153.82C0.386885 153.863 0.445948 153.899 0.508322 153.928C0.908447 154.116 1.23069 154.456 1.41371 154.885C1.59673 155.314 1.62774 155.801 1.50085 156.253C1.47947 156.322 1.46583 156.395 1.46024 156.468C1.45584 156.671 1.51031 156.871 1.61604 157.04C1.72177 157.208 1.87346 157.337 2.04991 157.407C2.22636 157.478 2.41875 157.487 2.60018 157.433C2.78161 157.379 2.943 157.266 3.0618 157.108C3.10174 157.049 3.13506 156.984 3.16105 156.917C3.33484 156.484 3.6497 156.135 4.04568 155.937C4.44167 155.739 4.89112 155.705 5.30849 155.842C5.3728 155.866 5.43946 155.881 5.50698 155.886C5.69501 155.891 5.87972 155.832 6.03529 155.718C6.19085 155.603 6.30949 155.439 6.3746 155.248C6.4397 155.057 6.44806 154.848 6.39844 154.652C6.34887 154.456 6.24379 154.281 6.09798 154.152C6.04348 154.109 5.98443 154.073 5.92206 154.044Z" fill="#4D8AF0"/>
    <path opacity="0.5" d="M235.272 9.43165C234.872 9.24349 234.55 8.90258 234.367 8.47383C234.184 8.04502 234.153 7.55832 234.28 7.10638C234.301 7.03675 234.315 6.9646 234.32 6.89144C234.325 6.68786 234.271 6.48786 234.164 6.31942C234.059 6.15102 233.907 6.02253 233.731 5.95204C233.554 5.88156 233.362 5.87251 233.181 5.92618C232.999 5.9799 232.838 6.0936 232.719 6.2515C232.679 6.31052 232.646 6.37448 232.62 6.44202C232.446 6.87532 232.131 7.22426 231.735 7.42244C231.339 7.62061 230.889 7.65414 230.472 7.51676C230.408 7.49362 230.341 7.47884 230.274 7.47278C230.085 7.46802 229.901 7.52704 229.745 7.6415C229.59 7.75596 229.471 7.92023 229.406 8.11128C229.341 8.30233 229.333 8.51068 229.382 8.70714C229.432 8.90354 229.537 9.07836 229.682 9.20696C229.737 9.25024 229.796 9.28629 229.859 9.31446C230.259 9.50262 230.581 9.84353 230.764 10.2723C230.947 10.7011 230.978 11.1878 230.851 11.6397C230.83 11.7094 230.816 11.7815 230.81 11.8547C230.806 12.0582 230.86 12.2582 230.966 12.4267C231.072 12.5951 231.224 12.7236 231.4 12.7941C231.577 12.8645 231.769 12.8736 231.95 12.8199C232.132 12.7662 232.293 12.6525 232.412 12.4946C232.452 12.4356 232.485 12.3716 232.511 12.3041C232.685 11.8708 233 11.5219 233.396 11.3237C233.792 11.1255 234.242 11.092 234.659 11.2293C234.723 11.2525 234.79 11.2673 234.857 11.2733C235.045 11.2781 235.23 11.2191 235.386 11.1047C235.541 10.9901 235.66 10.8259 235.725 10.6348C235.79 10.4438 235.798 10.2354 235.748 10.039C235.699 9.84256 235.594 9.6678 235.448 9.53914C235.394 9.49592 235.335 9.45982 235.272 9.43165Z" fill="#4D8AF0"/>
    <path opacity="0.5" d="M335.719 290.833C337.347 290.833 338.667 289.514 338.667 287.887C338.667 286.26 337.347 284.941 335.719 284.941C334.091 284.941 332.772 286.26 332.772 287.887C332.772 289.514 334.091 290.833 335.719 290.833Z" fill="#F55F44"/>
    <path opacity="0.5" d="M59.749 39.0991C61.3769 39.0991 62.6962 37.7802 62.6962 36.1532C62.6962 34.5263 61.3769 33.2074 59.749 33.2074C58.121 33.2074 56.8017 34.5263 56.8017 36.1532C56.8017 37.7802 58.121 39.0991 59.749 39.0991Z" fill="#F55F44"/>
    <path opacity="0.5" d="M46.3523 198.173C47.9801 198.173 49.2996 196.855 49.2996 195.228C49.2996 193.6 47.9801 192.282 46.3523 192.282C44.7246 192.282 43.4051 193.6 43.4051 195.228C43.4051 196.855 44.7246 198.173 46.3523 198.173Z" fill="#F55F44"/>
    <path opacity="0.5" d="M298.745 5.89164C300.373 5.89164 301.692 4.57275 301.692 2.94583C301.692 1.31889 300.373 0 298.745 0C297.117 0 295.797 1.31889 295.797 2.94583C295.797 4.57275 297.117 5.89164 298.745 5.89164Z" fill="#F55F44"/>
    </g>
    <defs>
    <clipPath id="clip0_102_3">
    <rect width="381" height="346" fill="white"/>
    </clipPath>
    </defs>
  </g>
</svg>
